<svg width="30" height="30" viewBox="0 0 30 30" fill="none" xmlns="http://www.w3.org/2000/svg">
<path d="M5.38469 26.8755C4.75327 26.8755 4.21881 26.6567 3.78131 26.2192C3.34381 25.7817 3.12506 25.2473 3.12506 24.6159V10.3852C3.12506 9.84031 3.28573 9.35352 3.60706 8.92484C3.92837 8.49615 4.34063 8.18003 4.84384 7.97649L18.4591 2.42605C18.6787 2.34593 18.897 2.35114 19.1142 2.44168C19.3313 2.53222 19.4799 2.68726 19.5601 2.9068C19.6402 3.12637 19.635 3.34472 19.5444 3.56187C19.4539 3.77899 19.2989 3.92762 19.0793 4.00774L8.95666 8.12555H24.6154C25.2468 8.12555 25.7813 8.3443 26.2188 8.7818C26.6563 9.2193 26.875 9.75376 26.875 10.3852V24.6159C26.875 25.2473 26.6563 25.7817 26.2188 26.2192C25.7813 26.6567 25.2468 26.8755 24.6154 26.8755H5.38469ZM5.38469 25.0005H24.6154C24.7115 25.0005 24.7997 24.9605 24.8798 24.8803C24.96 24.8002 25 24.712 25 24.6159V15.9621H5.00003V24.6159C5.00003 24.712 5.04009 24.8002 5.12022 24.8803C5.20036 24.9605 5.28852 25.0005 5.38469 25.0005ZM9.90387 23.3659C10.7067 23.3659 11.3882 23.0858 11.9483 22.5257C12.5084 21.9656 12.7885 21.2841 12.7885 20.4813C12.7885 19.6784 12.5084 18.9969 11.9483 18.4368C11.3882 17.8767 10.7067 17.5967 9.90387 17.5967C9.101 17.5967 8.41951 17.8767 7.85941 18.4368C7.29932 18.9969 7.01928 19.6784 7.01928 20.4813C7.01928 21.2841 7.29932 21.9656 7.85941 22.5257C8.41951 23.0858 9.101 23.3659 9.90387 23.3659ZM5.00003 14.0871H20.3126V12.6207C20.3126 12.3547 20.4023 12.132 20.5818 11.9525C20.7613 11.773 20.984 11.6832 21.25 11.6832C21.5161 11.6832 21.7388 11.773 21.9183 11.9525C22.0978 12.132 22.1875 12.3547 22.1875 12.6207V14.0871H25V10.3852C25 10.289 24.96 10.2009 24.8798 10.1207C24.7997 10.0406 24.7115 10.0005 24.6154 10.0005H5.38469C5.28852 10.0005 5.20036 10.0406 5.12022 10.1207C5.04009 10.2009 5.00003 10.289 5.00003 10.3852V14.0871Z" fill="black"/>
</svg>
