<svg width="30" height="30" viewBox="0 0 30 30" fill="none" xmlns="http://www.w3.org/2000/svg">
<path d="M8.12503 12.6422L6.38221 13.6062C6.11459 13.7568 5.83815 13.7965 5.5529 13.7251C5.26765 13.6538 5.0497 13.4844 4.89906 13.2167L2.87987 9.68315C2.72922 9.41552 2.68956 9.13708 2.76087 8.84783C2.83218 8.55856 3.00165 8.33861 3.26928 8.18799L9.83174 4.37549H11.6827C11.8942 4.37549 12.0633 4.43879 12.1899 4.5654C12.3165 4.692 12.3798 4.86107 12.3798 5.07261V5.5053C12.3798 6.21684 12.6386 6.83143 13.1562 7.34905C13.6739 7.86668 14.2885 8.12549 15 8.12549C15.7115 8.12549 16.3261 7.86668 16.8437 7.34905C17.3614 6.83143 17.6202 6.21684 17.6202 5.5053V5.07261C17.6202 4.86107 17.6835 4.692 17.8101 4.5654C17.9367 4.43879 18.1058 4.37549 18.3173 4.37549H20.1682L26.7307 8.18799C26.9983 8.33861 27.1678 8.55856 27.2391 8.84783C27.3104 9.13708 27.2708 9.41552 27.1201 9.68315L25.1009 13.2167C24.9503 13.4844 24.7355 13.6506 24.4567 13.7156C24.1779 13.7804 23.8982 13.7376 23.6178 13.5869L21.875 12.6614V24.5196C21.875 24.8338 21.7692 25.0966 21.5576 25.3081C21.3461 25.5197 21.0833 25.6254 20.7692 25.6254H9.23081C8.9167 25.6254 8.65388 25.5197 8.44234 25.3081C8.2308 25.0966 8.12503 24.8338 8.12503 24.5196V12.6422ZM9.99999 9.50046V23.7505H20V9.50046L23.851 11.6134L25.1394 9.43796L19.7764 6.28893H19.3798C19.1875 7.34341 18.6891 8.22561 17.8846 8.93555C17.0801 9.64549 16.1186 10.0005 15 10.0005C13.8814 10.0005 12.9199 9.64549 12.1154 8.93555C11.3109 8.22561 10.8125 7.34341 10.6202 6.28893H10.2236L4.86059 9.43796L6.14903 11.6134L9.99999 9.50046Z" fill="black"/>
</svg>
