<svg width="32" height="30" viewBox="0 0 32 30" fill="none" xmlns="http://www.w3.org/2000/svg">
<path d="M22.359 26.8754C22.0757 26.8754 21.8382 26.7855 21.6465 26.6058C21.4548 26.426 21.359 26.2033 21.359 25.9375C21.359 25.6718 21.4548 25.4492 21.6465 25.2697C21.8382 25.0902 22.0757 25.0005 22.359 25.0005H26.6923V22.0196H22.359C22.0757 22.0196 21.8382 21.9298 21.6465 21.75C21.4548 21.5702 21.359 21.3475 21.359 21.0818C21.359 20.816 21.4548 20.5934 21.6465 20.4139C21.8382 20.2344 22.0757 20.1447 22.359 20.1447H26.6923V17.1639H22.359C22.0757 17.1639 21.8382 17.074 21.6465 16.8942C21.4548 16.7145 21.359 16.4917 21.359 16.226C21.359 15.9603 21.4548 15.7377 21.6465 15.5582C21.8382 15.3787 22.0757 15.2889 22.359 15.2889H26.6923V12.3081H22.359C22.0757 12.3081 21.8382 12.2183 21.6465 12.0385C21.4548 11.8587 21.359 11.636 21.359 11.3702C21.359 11.1045 21.4548 10.8819 21.6465 10.7024C21.8382 10.5229 22.0757 10.4332 22.359 10.4332H26.6923V7.45236H22.359C22.0757 7.45236 21.8382 7.36249 21.6465 7.18274C21.4548 7.00297 21.359 6.78022 21.359 6.51449C21.359 6.24874 21.4548 6.02612 21.6465 5.84665C21.8382 5.66717 22.0757 5.57743 22.359 5.57743H27.4615C28.135 5.57743 28.7051 5.79618 29.1718 6.23368C29.6384 6.67118 29.8718 7.20563 29.8718 7.83702V24.6158C29.8718 25.2472 29.6384 25.7817 29.1718 26.2192C28.7051 26.6567 28.135 26.8754 27.4615 26.8754H22.359ZM8.78978 25.0005H12.4923C12.5778 25.0005 12.6547 24.9784 12.7231 24.9343C12.7915 24.8903 12.8428 24.8282 12.877 24.748L16.5923 15.1135C16.6265 15.0253 16.6265 14.9372 16.5923 14.849C16.5581 14.7609 16.4983 14.6928 16.4128 14.6447L12.1897 12.2841H9.09235L4.86928 14.6447C4.7838 14.6928 4.72396 14.7609 4.68978 14.849C4.65558 14.9372 4.65558 15.0253 4.68978 15.1135L8.40515 24.748C8.43933 24.8282 8.49061 24.8903 8.55899 24.9343C8.62736 24.9784 8.7043 25.0005 8.78978 25.0005ZM6.53338 25.3754L2.81802 15.7721C2.61291 15.2657 2.60667 14.7579 2.79932 14.2487C2.99198 13.7395 3.34181 13.3435 3.84878 13.0606L8.64108 10.3611V4.23127C8.64108 3.92519 8.75604 3.66438 8.98595 3.44883C9.21586 3.23327 9.49406 3.12549 9.82055 3.12549H11.4615C11.788 3.12549 12.0662 3.23327 12.2961 3.44883C12.526 3.66438 12.641 3.92519 12.641 4.23127V10.3611L17.4333 13.0606C17.9403 13.3435 18.2901 13.7395 18.4828 14.2487C18.6754 14.7579 18.6692 15.2657 18.4641 15.7721L14.7487 25.3754C14.5795 25.8273 14.2906 26.1903 13.8821 26.4644C13.4737 26.7384 13.0104 26.8754 12.4923 26.8754H8.78978C8.27172 26.8754 7.80844 26.7384 7.39995 26.4644C6.99146 26.1903 6.70261 25.8273 6.53338 25.3754Z" fill="black"/>
</svg>
