<svg width="30" height="30" viewBox="0 0 30 30" fill="none" xmlns="http://www.w3.org/2000/svg">
<path d="M6.27362 25.2167C6.00787 25.2167 5.78526 25.1269 5.60578 24.9472C5.4263 24.7675 5.33656 24.5448 5.33656 24.2792V23.0292H5C4.12662 23.0292 3.38746 22.7267 2.7825 22.1218C2.1775 21.5168 1.875 20.7777 1.875 19.9043V13.6543C1.875 12.7328 2.1895 11.9816 2.8185 11.4007C3.4475 10.8198 4.17466 10.5293 4.99997 10.5293V8.26971C4.99997 7.39634 5.30245 6.65717 5.90741 6.05221C6.51236 5.44725 7.25154 5.14478 8.12494 5.14478H21.875C22.7484 5.14478 23.4876 5.44725 24.0925 6.05221C24.6975 6.65717 25 7.39634 25 8.26971V10.5293C25.8574 10.5293 26.5925 10.8258 27.2055 11.4187C27.8185 12.0117 28.125 12.7568 28.125 13.6543V19.9043C28.125 20.7777 27.8225 21.5168 27.2175 22.1218C26.6126 22.7267 25.8734 23.0292 25 23.0292H24.6634V24.2792C24.6634 24.5448 24.5777 24.7675 24.4062 24.9472C24.2348 25.1269 24.0162 25.2167 23.7504 25.2167C23.4847 25.2167 23.2619 25.1269 23.0822 24.9472C22.9024 24.7675 22.8125 24.5448 22.8125 24.2792V23.0292H7.21153V24.2792C7.21153 24.5452 7.12165 24.768 6.94187 24.9475C6.7621 25.127 6.53935 25.2167 6.27362 25.2167ZM5 21.1543H25C25.3542 21.1543 25.651 21.0345 25.8906 20.7949C26.1302 20.5553 26.25 20.2584 26.25 19.9043V13.6543C26.25 13.3001 26.1302 13.0032 25.8906 12.7636C25.651 12.5241 25.3542 12.4043 25 12.4043C24.6458 12.4043 24.349 12.5241 24.1094 12.7636C23.8698 13.0032 23.75 13.3001 23.75 13.6543V18.3417H6.25V13.6543C6.25 13.3001 6.13021 13.0032 5.89062 12.7636C5.65104 12.5241 5.35417 12.4043 5 12.4043C4.64583 12.4043 4.34896 12.5241 4.10937 12.7636C3.86979 13.0032 3.75 13.3001 3.75 13.6543V19.9043C3.75 20.2584 3.86979 20.5553 4.10937 20.7949C4.34896 21.0345 4.64583 21.1543 5 21.1543ZM8.12497 16.4668H21.875V13.6543C21.875 13.1479 21.9896 12.6855 22.2188 12.2673C22.4479 11.849 22.75 11.4988 23.125 11.2168V8.26971C23.125 7.91555 23.0052 7.61867 22.7657 7.37909C22.5261 7.1395 22.2292 7.01971 21.875 7.01971H8.12497C7.7708 7.01971 7.47393 7.1395 7.23434 7.37909C6.99476 7.61867 6.87497 7.91555 6.87497 8.26971V11.2168C7.24997 11.4988 7.55205 11.849 7.78122 12.2673C8.01039 12.6855 8.12497 13.1479 8.12497 13.6543V16.4668Z" fill="black"/>
</svg>
