<svg width="24" height="24" viewBox="0 0 24 24" fill="none" xmlns="http://www.w3.org/2000/svg">
<path d="M2.5 20.8466V18.0966C2.5 17.8992 2.53013 17.7101 2.5904 17.5293C2.65065 17.3485 2.74103 17.1761 2.86155 17.012L11.0673 5.96394L10.0808 4.63509C10.0167 4.55049 9.97277 4.46012 9.94905 4.36397C9.92533 4.2678 9.92021 4.17325 9.93368 4.08032C9.94713 3.98737 9.97918 3.89699 10.0298 3.80917C10.0805 3.72135 10.1481 3.64539 10.2327 3.58129C10.4083 3.45309 10.5942 3.40245 10.7904 3.42937C10.9865 3.45629 11.1487 3.55756 11.2769 3.73319L12 4.71204L12.7231 3.73319C12.8513 3.55756 13.015 3.45629 13.2144 3.42937C13.4137 3.40245 13.6012 3.45309 13.7769 3.58129C13.9525 3.70949 14.0538 3.87327 14.0807 4.07262C14.1076 4.27197 14.057 4.45946 13.9288 4.63509L12.9423 5.96394L21.1384 17.012C21.2589 17.1761 21.3493 17.3485 21.4096 17.5293C21.4698 17.7101 21.5 17.8992 21.5 18.0966V20.8466C21.5 21.1043 21.4137 21.3193 21.2413 21.4918C21.0688 21.6642 20.8538 21.7504 20.5961 21.7504H3.40385C3.14617 21.7504 2.93111 21.6642 2.75868 21.4918C2.58623 21.3193 2.5 21.1043 2.5 20.8466ZM12 7.22544L3.99998 17.9908V20.2505H7.12498L11.2615 14.4678C11.4423 14.2101 11.6884 14.0812 12 14.0812C12.3115 14.0812 12.5577 14.2101 12.7384 14.4678L16.875 20.2505H20V17.9908L12 7.22544ZM8.96918 20.2505H15.0308L12 16.0177L8.96918 20.2505ZM12.7481 14.4678L16.875 20.2505L12.7384 14.4678C12.5577 14.2101 12.3115 14.0812 12 14.0812C11.6884 14.0812 11.4423 14.2101 11.2615 14.4678C11.4423 14.2101 11.69 14.0812 12.0048 14.0812C12.3195 14.0812 12.5673 14.2101 12.7481 14.4678Z" fill="black"/>
</svg>
