<svg width="24" height="24" viewBox="0 0 24 24" fill="none" xmlns="http://www.w3.org/2000/svg">
<path d="M4.3077 20.5004C3.80898 20.5004 3.38303 20.3238 3.02983 19.9706C2.67661 19.6174 2.5 19.1915 2.5 18.6927V16.712C2.5 16.4543 2.58623 16.2392 2.75868 16.0668C2.93111 15.8944 3.14617 15.8081 3.40385 15.8081H20.5961C20.8538 15.8081 21.0688 15.8944 21.2413 16.0668C21.4137 16.2392 21.5 16.4543 21.5 16.712V18.6927C21.5 19.1915 21.3233 19.6174 20.9701 19.9706C20.6169 20.3238 20.191 20.5004 19.6923 20.5004H4.3077ZM3.99998 17.3081V18.6927C3.99998 18.7825 4.02883 18.8562 4.08653 18.9139C4.14423 18.9716 4.21795 19.0005 4.3077 19.0005H19.6923C19.782 19.0005 19.8557 18.9716 19.9134 18.9139C19.9711 18.8562 20 18.7825 20 18.6927V17.3081H3.99998ZM12 13.0581C11.4064 13.0581 10.9426 13.2248 10.6086 13.5581C10.2747 13.8914 9.67948 14.0581 8.82308 14.0581C7.96666 14.0581 7.37659 13.8914 7.05288 13.5581C6.72916 13.2248 6.27051 13.0581 5.67693 13.0581C5.19103 13.0581 4.80224 13.1818 4.51058 13.4293C4.21891 13.6767 3.81025 13.8575 3.2846 13.9716C3.08205 14.0293 2.90065 13.9863 2.7404 13.8427C2.58013 13.6992 2.5 13.521 2.5 13.3081C2.5 13.0953 2.5734 12.912 2.7202 12.7582C2.86698 12.6043 3.04166 12.48 3.24423 12.3851C3.58526 12.2607 3.91763 12.0918 4.24135 11.8784C4.56507 11.6649 5.04359 11.5582 5.67693 11.5582C6.53333 11.5582 7.12338 11.7248 7.4471 12.0582C7.77082 12.3915 8.22948 12.5582 8.82308 12.5582C9.41666 12.5582 9.88043 12.3915 10.2144 12.0582C10.5484 11.7248 11.1436 11.5582 12 11.5582C12.8564 11.5582 13.4516 11.7248 13.7856 12.0582C14.1195 12.3915 14.5833 12.5582 15.1769 12.5582C15.7705 12.5582 16.2259 12.3915 16.5432 12.0582C16.8605 11.7248 17.4474 11.5582 18.3038 11.5582C18.9166 11.5582 19.3932 11.6623 19.7336 11.8707C20.074 12.079 20.4147 12.2453 20.7557 12.3697C20.9583 12.4646 21.133 12.5915 21.2798 12.7505C21.4266 12.9094 21.5 13.0953 21.5 13.3081C21.5 13.521 21.4224 13.6992 21.2673 13.8427C21.1121 13.9863 20.9333 14.0293 20.7307 13.9716C20.2217 13.8575 19.8282 13.6767 19.55 13.4293C19.2718 13.1818 18.8897 13.0581 18.4038 13.0581C17.8102 13.0581 17.3381 13.2248 16.9875 13.5581C16.6368 13.8914 16.0333 14.0581 15.1769 14.0581C14.3205 14.0581 13.7253 13.8914 13.3913 13.5581C13.0573 13.2248 12.5936 13.0581 12 13.0581ZM12 3.50049C13.1628 3.50049 14.3096 3.59536 15.4404 3.78511C16.5711 3.97485 17.5849 4.27997 18.4817 4.70049C19.3785 5.12099 20.1057 5.67676 20.6634 6.36779C21.2211 7.05881 21.5 7.91072 21.5 8.92354C21.5 9.16841 21.4137 9.37706 21.2413 9.54949C21.0688 9.72192 20.8602 9.80814 20.6153 9.80814H3.38463C3.13976 9.80814 2.93111 9.72192 2.75868 9.54949C2.58623 9.37706 2.5 9.16841 2.5 8.92354C2.5 7.91072 2.77885 7.05881 3.33655 6.36779C3.89423 5.67676 4.62147 5.12099 5.51828 4.70049C6.41506 4.27997 7.42883 3.97485 8.5596 3.78511C9.69037 3.59536 10.8372 3.50049 12 3.50049ZM12 5.00046C9.66406 5.00046 7.8211 5.28925 6.4711 5.86681C5.1211 6.44438 4.32816 7.25817 4.09228 8.30819H19.9077C19.6718 7.25817 18.8789 6.44438 17.5289 5.86681C16.1789 5.28925 14.3359 5.00046 12 5.00046Z" fill="black"/>
</svg>
