<svg width="24" height="24" viewBox="0 0 24 24" fill="none" xmlns="http://www.w3.org/2000/svg">
<path d="M6.50001 16.0197C7.32823 16.0197 8.134 16.1137 8.91734 16.3015C9.70067 16.4893 10.4782 16.7839 11.25 17.1851V7.35437C10.5475 6.89669 9.78721 6.55342 8.96926 6.32457C8.15131 6.09572 7.32823 5.9813 6.50001 5.9813C5.90001 5.9813 5.33944 6.02841 4.81829 6.12262C4.29714 6.21686 3.76156 6.37102 3.21156 6.58512C3.13463 6.61077 3.08014 6.64764 3.04809 6.69572C3.01604 6.74381 3.00001 6.79669 3.00001 6.85437V16.312C3.00001 16.4018 3.03206 16.4675 3.09616 16.5092C3.16028 16.5508 3.2308 16.5556 3.30774 16.5236C3.78209 16.3621 4.28272 16.2377 4.80964 16.1505C5.33655 16.0633 5.90001 16.0197 6.50001 16.0197ZM12.75 17.1851C13.5218 16.7839 14.2994 16.4893 15.0827 16.3015C15.866 16.1137 16.6718 16.0197 17.5 16.0197C18.1 16.0197 18.6635 16.0633 19.1904 16.1505C19.7173 16.2377 20.2179 16.3621 20.6923 16.5236C20.7692 16.5556 20.8397 16.5508 20.9039 16.5092C20.968 16.4675 21 16.4018 21 16.312V6.85437C21 6.79669 20.984 6.74541 20.9519 6.70052C20.9199 6.65564 20.8654 6.61717 20.7885 6.58512C20.2385 6.37102 19.7029 6.21686 19.1817 6.12262C18.6606 6.02841 18.1 5.9813 17.5 5.9813C16.6718 5.9813 15.8487 6.09572 15.0308 6.32457C14.2128 6.55342 13.4526 6.89669 12.75 7.35437V17.1851ZM12 18.9659C11.8051 18.9659 11.6228 18.9415 11.4529 18.8928C11.283 18.8441 11.1225 18.7793 10.9712 18.6986C10.2827 18.3088 9.56252 18.0149 8.81059 17.8168C8.05867 17.6188 7.28848 17.5197 6.50001 17.5197C5.88976 17.5197 5.29041 17.5873 4.70196 17.7226C4.11349 17.8578 3.54619 18.0569 3.00004 18.3197C2.64364 18.4838 2.30454 18.4578 1.98274 18.2418C1.66095 18.0258 1.50006 17.7197 1.50006 17.3235V6.46592C1.50006 6.25054 1.5555 6.0483 1.66639 5.8592C1.77729 5.6701 1.93723 5.53388 2.14621 5.45055C2.82313 5.12106 3.52857 4.87716 4.26254 4.71882C4.9965 4.56049 5.74233 4.48132 6.50001 4.48132C7.47309 4.48132 8.42374 4.61434 9.35194 4.88037C10.2801 5.14639 11.1628 5.53902 12 6.05825C12.8372 5.53902 13.7199 5.14639 14.6481 4.88037C15.5763 4.61434 16.5269 4.48132 17.5 4.48132C18.2577 4.48132 19.0035 4.56049 19.7375 4.71882C20.4715 4.87716 21.1769 5.12106 21.8538 5.45055C22.0628 5.53388 22.2227 5.6701 22.3336 5.8592C22.4445 6.0483 22.5 6.25054 22.5 6.46592V17.3235C22.5 17.7197 22.3327 18.0226 21.9981 18.2322C21.6634 18.4418 21.3115 18.4646 20.9423 18.3005C20.4025 18.0441 19.8432 17.8498 19.2644 17.7178C18.6856 17.5857 18.0974 17.5197 17.5 17.5197C16.7115 17.5197 15.9414 17.6188 15.1894 17.8168C14.4375 18.0149 13.7173 18.3088 13.0288 18.6986C12.8776 18.7793 12.717 18.8441 12.5471 18.8928C12.3772 18.9415 12.1949 18.9659 12 18.9659ZM13.9423 8.86207C13.9423 8.75054 13.9821 8.63644 14.0615 8.51977C14.141 8.40311 14.2314 8.32298 14.3327 8.2794C14.8288 8.08067 15.3394 7.93002 15.8644 7.82747C16.3894 7.72491 16.9346 7.67362 17.5 7.67362C17.8269 7.67362 18.1433 7.69285 18.449 7.7313C18.7548 7.76977 19.0628 7.82233 19.3731 7.889C19.491 7.91592 19.593 7.98002 19.6788 8.0813C19.7647 8.18258 19.8077 8.30053 19.8077 8.43515C19.8077 8.66078 19.7369 8.82584 19.5952 8.93032C19.4535 9.03481 19.2699 9.06012 19.0442 9.00627C18.8045 8.95627 18.5555 8.92038 18.2971 8.8986C18.0388 8.8768 17.7731 8.8659 17.5 8.8659C17.0154 8.8659 16.5407 8.91237 16.076 9.00532C15.6112 9.09827 15.1679 9.22423 14.7461 9.3832C14.5103 9.47423 14.3173 9.46911 14.1673 9.36782C14.0173 9.26654 13.9423 9.09796 13.9423 8.86207ZM13.9423 14.3236C13.9423 14.2121 13.9821 14.0964 14.0615 13.9765C14.141 13.8566 14.2314 13.7749 14.3327 13.7313C14.816 13.5326 15.3266 13.3835 15.8644 13.2842C16.4023 13.1848 16.9474 13.1351 17.5 13.1351C17.8269 13.1351 18.1433 13.1544 18.449 13.1928C18.7548 13.2313 19.0628 13.2839 19.3731 13.3505C19.491 13.3775 19.593 13.4416 19.6788 13.5428C19.7647 13.6441 19.8077 13.7621 19.8077 13.8967C19.8077 14.1223 19.7369 14.2874 19.5952 14.3918C19.4535 14.4963 19.2699 14.5217 19.0442 14.4678C18.8045 14.4178 18.5555 14.3819 18.2971 14.3601C18.0388 14.3383 17.7731 14.3274 17.5 14.3274C17.0218 14.3274 16.5519 14.3729 16.0904 14.464C15.6288 14.555 15.1872 14.6832 14.7654 14.8486C14.5295 14.946 14.3333 14.9435 14.1769 14.8409C14.0205 14.7383 13.9423 14.5659 13.9423 14.3236ZM13.9423 11.6024C13.9423 11.4909 13.9821 11.3768 14.0615 11.2601C14.141 11.1435 14.2314 11.0634 14.3327 11.0198C14.8288 10.8211 15.3394 10.6704 15.8644 10.5678C16.3894 10.4653 16.9346 10.414 17.5 10.414C17.8269 10.414 18.1433 10.4332 18.449 10.4717C18.7548 10.5101 19.0628 10.5627 19.3731 10.6294C19.491 10.6563 19.593 10.7204 19.6788 10.8217C19.7647 10.923 19.8077 11.0409 19.8077 11.1755C19.8077 11.4012 19.7369 11.5662 19.5952 11.6707C19.4535 11.7752 19.2699 11.8005 19.0442 11.7467C18.8045 11.6967 18.5555 11.6608 18.2971 11.639C18.0388 11.6172 17.7731 11.6063 17.5 11.6063C17.0154 11.6063 16.5407 11.6527 16.076 11.7457C15.6112 11.8386 15.1679 11.9646 14.7461 12.1236C14.5103 12.2146 14.3173 12.2095 14.1673 12.1082C14.0173 12.0069 13.9423 11.8383 13.9423 11.6024Z" fill="black"/>
</svg>
