<svg width="30" height="30" viewBox="0 0 30 30" fill="none" xmlns="http://www.w3.org/2000/svg">
<g clip-path="url(#clip0_3860_2121)">
<circle cx="15" cy="15.0005" r="15" fill="black"/>
<path d="M3.82066 19.0005V11.9287H6.52439C8.05409 11.9287 8.8103 12.7091 8.8103 13.7657C8.8103 14.622 8.26818 15.1055 7.57757 15.2678V15.3368C8.33033 15.3783 9.08655 16.0033 9.08655 17.0737C9.08655 18.1752 8.2958 19.0005 6.67633 19.0005H3.82066ZM5.08793 17.937H6.47605C7.40837 17.937 7.79856 17.5399 7.79856 16.977C7.79856 16.3416 7.30133 15.8582 6.51403 15.8582H5.08793V17.937ZM5.08793 14.9397H6.36555C7.03544 14.9397 7.54304 14.5495 7.54304 13.9245C7.54304 13.3789 7.14939 12.9818 6.39318 12.9818H5.08793V14.9397ZM10.1293 19.0005V11.9287H14.7218V12.9991H11.3965V14.9259H14.4801V15.9929H11.3965V17.93H14.746V19.0005H10.1293ZM19.7893 13.8727C19.7272 13.265 19.2196 12.9128 18.453 12.9128C17.6485 12.9128 17.1685 13.303 17.1685 13.8382C17.1616 14.4287 17.79 14.6773 18.3736 14.8154L19.0366 14.9812C20.0932 15.2298 21.1119 15.7857 21.1119 17.015C21.1119 18.2581 20.1277 19.1075 18.4323 19.1075C16.7887 19.1075 15.7458 18.3202 15.6906 16.9183H16.9406C16.9958 17.6573 17.6208 18.0198 18.4219 18.0198C19.261 18.0198 19.8377 17.6124 19.8411 17.0046C19.8377 16.4556 19.3266 16.2173 18.567 16.0205L17.7624 15.8133C16.5987 15.5164 15.8771 14.9294 15.8805 13.9142C15.8736 12.6642 16.9855 11.832 18.4703 11.832C19.9724 11.832 20.991 12.678 21.0152 13.8727H19.7893ZM21.8658 12.9991V11.9287H27.4977V12.9991H25.3154V19.0005H24.0516V12.9991H21.8658Z" fill="white"/>
</g>
<defs>
<clipPath id="clip0_3860_2121">
<rect width="30" height="30" fill="white" transform="translate(0 0.000488281)"/>
</clipPath>
</defs>
</svg>
